<?xml version="1.0" encoding="UTF-8"?><svg id="Layer_1" xmlns="http://www.w3.org/2000/svg" viewBox="0 0 70 62"><defs><style>.cls-1{fill:#fff;}.cls-2{fill:#21bbb5;}.cls-3{fill:#ec2b77;}.cls-4{fill:#572963;}</style></defs><rect class="cls-2" width="70" height="62" rx="12" ry="12"/><polygon class="cls-3" points="21.7 20.67 54.43 20.67 56.25 22.66 56.25 38.57 54.43 40.56 21.7 40.56 19.89 38.57 19.89 22.66 21.7 20.67"/><polyline class="cls-3" points="25.74 40.56 21.7 44.54 24.07 44.54 28.98 40.56"/><polygon class="cls-4" points="18.07 20.67 50.8 20.67 52.61 22.66 52.61 38.57 50.8 40.56 18.07 40.56 16.25 38.57 16.25 22.66 18.07 20.67"/><polyline class="cls-4" points="22.11 40.56 18.07 44.54 20.43 44.54 25.34 40.56"/><polygon class="cls-1" points="19.89 20.67 52.61 20.67 54.43 22.66 54.43 38.57 52.61 40.56 19.89 40.56 18.07 38.57 18.07 22.66 19.89 20.67"/><polyline class="cls-1" points="23.93 40.56 19.89 44.54 22.25 44.54 27.16 40.56"/></svg>