<?xml version="1.0" encoding="UTF-8"?>
<svg id="Layer_1" xmlns="http://www.w3.org/2000/svg" version="1.1" viewBox="0 0 500 500">
  <!-- Generator: Adobe Illustrator 29.2.1, SVG Export Plug-In . SVG Version: 2.1.0 Build 116)  -->
  <defs>
    <style>
      .st0 {
        fill: #fff;
      }

      .st1 {
        fill: #ec2b77;
      }

      .st2 {
        fill: #572963;
      }

      .st3 {
        fill: #36bdb4;
      }
    </style>
  </defs>
  <rect class="st3" x="4.26" y="26" width="490.74" height="446.93" rx="12" ry="12"/>
  <polygon class="st2" points="275.92 113.63 275.92 157.45 240.86 157.45 240.86 192.5 277.86 192.5 277.86 239.24 238.36 239.24 238.36 361.65 181.05 361.65 181.05 240.35 153.23 240.35 153.23 192.5 188.28 192.5 188.28 139.92 205.81 122.4 221.67 113.63 237.8 113.63 275.92 113.63"/>
  <polygon class="st1" points="337.26 113.63 337.26 157.45 302.21 157.45 302.21 192.5 339.21 192.5 339.21 239.24 299.7 239.24 299.7 361.65 242.39 361.65 242.39 240.35 214.57 240.35 214.57 192.5 249.63 192.5 249.63 139.92 267.15 122.4 283.01 113.63 299.15 113.63 337.26 113.63"/>
  <polygon class="st0" points="310.97 113.63 310.97 157.45 275.92 157.45 275.92 192.5 312.92 192.5 312.92 239.24 273.41 239.24 273.41 361.65 216.1 361.65 216.1 240.35 188.28 240.35 188.28 192.5 223.34 192.5 223.34 139.92 240.86 122.4 256.72 113.63 272.86 113.63 310.97 113.63"/>
</svg>