<?xml version="1.0" encoding="UTF-8"?>
<svg id="Layer_2" data-name="Layer 2" xmlns="http://www.w3.org/2000/svg" viewBox="0 0 353.64 94.63">
  <defs>
    <style>
      .cls-1 {
        fill: #fff;
      }
    </style>
  </defs>
  <g>
    <ellipse class="cls-1" cx="350.96" cy="59.02" rx="2.67" ry="2.97"/>
    <ellipse class="cls-1" cx="296.43" cy="11.5" rx="2.67" ry="2.97"/>
    <rect class="cls-1" x="350.43" y=".21" width="1.07" height="58.22" transform="translate(701.93 58.64) rotate(180)"/>
    <g>
      <ellipse class="cls-1" cx="268.63" cy="11.5" rx="2.67" ry="2.97"/>
      <rect class="cls-1" x="282.47" y="-1.33" width="1.19" height="25.66" transform="translate(294.56 -271.57) rotate(90)"/>
    </g>
    <polygon class="cls-1" points="297.28 11.67 296.78 10.62 314.52 .1 315.02 1.15 297.28 11.67"/>
    <rect class="cls-1" x="331.99" y="-17.43" width="1.43" height="36.29" transform="translate(333.42 -331.99) rotate(90)"/>
  </g>
  <g>
    <g>
      <ellipse class="cls-1" cx="2.14" cy="41.79" rx="2.14" ry="2.38"/>
      <rect class="cls-1" x="1.71" y="43.22" width=".86" height="22.85" transform="translate(4.28 109.29) rotate(180)"/>
    </g>
    <g>
      <ellipse class="cls-1" cx="47.55" cy="92.25" rx="2.14" ry="2.38"/>
      <rect class="cls-1" x="35.5" y="81.97" width=".95" height="20.56" transform="translate(-56.27 128.23) rotate(-90)"/>
    </g>
    <polygon class="cls-1" points="12.72 76.68 11.99 77.49 1.71 66.07 2.44 65.26 12.72 76.68"/>
    <rect class="cls-1" x="11.84" y="76.62" width="1.03" height="16.15"/>
    <rect class="cls-1" x="18.64" y="85.05" width="1.15" height="14.54" transform="translate(111.53 73.1) rotate(90)"/>
  </g>
</svg>