<?xml version="1.0" encoding="UTF-8"?>
<svg id="Layer_1" data-name="Layer 1" xmlns="http://www.w3.org/2000/svg" viewBox="0 0 467.59 425.84">
  <defs>
    <style>
      .cls-1 {
        fill: #fff;
      }

      .cls-2 {
        fill: #ec2b77;
      }

      .cls-3 {
        fill: #572963;
      }

      .cls-4 {
        fill: #36bdb4;
      }
    </style>
  </defs>
  <rect class="cls-4" x="0" width="467.59" height="425.84" rx="12" ry="12"/>
  <g>
    <g>
      <path class="cls-2" d="M290.4,193.94l75.91-85.4h-31.63l-63.26,66.42-47.44-66.42h-75.91l85.4,113.86-75.91,94.88h37.95l63.71-68.44,52.41,68.44h73.65l-94.88-123.35ZM195.52,137.01h18.07l124.25,161.3h-23.04l-119.28-161.3Z"/>
      <path class="cls-3" d="M233.47,193.94l75.91-85.4h-31.63l-63.26,66.42-47.44-66.42h-75.91l85.4,113.86-75.91,94.88h37.95l63.71-68.44,52.41,68.44h73.65l-94.88-123.35ZM138.58,137.01h18.07l124.25,161.3h-23.04l-119.28-161.3Z"/>
    </g>
    <path class="cls-1" d="M260.58,193.94l75.91-85.4h-31.63l-63.26,66.42-47.44-66.42h-75.91l85.4,113.86-75.91,94.88h37.95l63.71-68.44,52.41,68.44h73.65l-94.88-123.35ZM165.69,137.01h18.07l124.25,161.3h-23.04l-119.28-161.3Z"/>
  </g>
</svg>