<?xml version="1.0" encoding="UTF-8"?>
<svg id="Layer_1" data-name="Layer 1" xmlns="http://www.w3.org/2000/svg" viewBox="0 0 461.18 420">
  <defs>
    <style>
      .cls-1 {
        fill: #fff;
      }

      .cls-2 {
        fill: #ec2b77;
      }

      .cls-3 {
        fill: #572963;
      }

      .cls-4 {
        fill: #36bdb4;
      }
    </style>
  </defs>
  <rect class="cls-4" width="461.18" height="420" rx="12" ry="12"/>
  <g>
    <path class="cls-3" d="M347.63,141.44l-12.09-26.14H89.06l-14.94,17.07v147.25l14.94,22.41h246.48l14.94-22.41-2.84-138.18ZM186.16,249.74v-82.16l70.78,44.82-70.78,37.35Z"/>
    <path class="cls-2" d="M392.45,141.44l-12.09-26.14h-246.48l-14.94,17.07v147.25l14.94,22.41h246.48l14.94-22.41-2.84-138.18ZM230.97,249.74v-82.16l70.78,44.82-70.78,37.35Z"/>
    <path class="cls-1" d="M370.04,141.44l-12.09-26.14H111.46l-14.94,17.07v147.25l14.94,22.41h246.48l14.94-22.41-2.84-138.18ZM208.56,249.74v-82.16l70.78,44.82-70.78,37.35Z"/>
  </g>
</svg>