<?xml version="1.0" encoding="UTF-8"?>
<svg id="Layer_1" data-name="Layer 1" xmlns="http://www.w3.org/2000/svg" viewBox="0 0 353.39 313">
  <defs>
    <style>
      .cls-1 {
        fill: #fff;
      }

      .cls-2 {
        fill: #21bbb5;
      }

      .cls-3 {
        fill: #ec2b77;
      }

      .cls-4 {
        fill: #572963;
      }
    </style>
  </defs>
  <rect class="cls-2" width="353.39" height="313" rx="12" ry="12"/>
  <g>
    <g>
      <polygon class="cls-3" points="109.57 104.33 274.79 104.33 283.97 114.38 283.97 194.72 274.79 204.76 109.57 204.76 100.39 194.72 100.39 114.38 109.57 104.33"/>
      <polyline class="cls-3" points="129.97 204.76 109.57 224.85 121.52 224.85 146.29 204.76"/>
    </g>
    <g>
      <polygon class="cls-4" points="91.22 104.33 256.44 104.33 265.61 114.38 265.61 194.72 256.44 204.76 91.22 204.76 82.04 194.72 82.04 114.38 91.22 104.33"/>
      <polyline class="cls-4" points="111.61 204.76 91.22 224.85 103.16 224.85 127.93 204.76"/>
    </g>
    <g>
      <polygon class="cls-1" points="100.39 104.33 265.61 104.33 274.79 114.38 274.79 194.72 265.61 204.76 100.39 204.76 91.22 194.72 91.22 114.38 100.39 104.33"/>
      <polyline class="cls-1" points="120.79 204.76 100.39 224.85 112.34 224.85 137.11 204.76"/>
    </g>
  </g>
</svg>