<?xml version="1.0" encoding="UTF-8"?>
<svg id="Layer_1" xmlns="http://www.w3.org/2000/svg" version="1.1" viewBox="0 0 479 437">
  <!-- Generator: Adobe Illustrator 29.2.1, SVG Export Plug-In . SVG Version: 2.1.0 Build 116)  -->
  <defs>
    <style>
      .st0 {
        fill: #fff;
      }

      .st1 {
        fill: #ec2b77;
      }

      .st2 {
        fill: #572963;
      }

      .st3 {
        fill: #36bdb4;
      }
    </style>
  </defs>
  <rect class="st3" x="6.7" y="4" width="467.3" height="425.58" rx="12" ry="12"/>
  <g>
    <rect class="st0" x="131.87" y="95.79" width="58.41" height="58.41"/>
    <rect class="st0" x="131.87" y="174.07" width="58.41" height="152.59"/>
    <polygon class="st0" points="219.29 174.07 273.33 174.07 273.33 193.15 285.55 186.79 303 174.07 338.5 174.07 357.17 179.24 373.86 195.93 388.3 216.79 388.3 328.78 332.14 329.44 332.14 262.68 332.14 237.65 323.8 220.96 298.76 220.96 282.81 225.99 273.73 229.31 271.21 326.66 219.29 326.66 219.29 174.07"/>
  </g>
  <g>
    <rect class="st1" x="156.9" y="95.79" width="58.41" height="58.41"/>
    <rect class="st1" x="156.9" y="174.07" width="58.41" height="152.59"/>
    <polygon class="st1" points="244.32 174.07 298.36 174.07 298.36 193.15 310.58 186.79 328.03 174.07 363.53 174.07 382.21 179.24 398.9 195.93 413.34 216.79 413.34 328.78 357.17 329.44 357.17 262.68 357.17 237.65 348.83 220.96 323.8 220.96 307.85 225.99 298.76 229.31 296.25 326.66 244.32 326.66 244.32 174.07"/>
  </g>
  <g>
    <rect class="st2" x="106.83" y="95.79" width="58.41" height="58.41"/>
    <rect class="st2" x="106.83" y="174.07" width="58.41" height="152.59"/>
    <polygon class="st2" points="194.25 174.07 248.3 174.07 248.3 193.15 260.52 186.79 277.97 174.07 313.46 174.07 332.14 179.24 348.83 195.93 363.27 216.79 363.27 328.78 307.11 329.44 307.11 262.68 307.11 237.65 298.76 220.96 273.73 220.96 257.78 225.99 248.69 229.31 246.18 326.66 194.25 326.66 194.25 174.07"/>
  </g>
  <g>
    <rect class="st0" x="131.87" y="95.79" width="58.41" height="58.41"/>
    <rect class="st0" x="131.87" y="174.07" width="58.41" height="152.59"/>
    <polygon class="st0" points="219.29 174.07 273.33 174.07 273.33 193.15 285.55 186.79 303 174.07 338.5 174.07 357.17 179.24 373.86 195.93 388.3 216.79 388.3 328.78 332.14 329.44 332.14 262.68 332.14 237.65 323.8 220.96 298.76 220.96 282.81 225.99 273.73 229.31 271.21 326.66 219.29 326.66 219.29 174.07"/>
  </g>
</svg>