<?xml version="1.0" encoding="UTF-8"?>
<svg id="Layer_1" data-name="Layer 1" xmlns="http://www.w3.org/2000/svg" viewBox="0 0 464.47 423">
  <defs>
    <style>
      .cls-1 {
        fill: #fff;
      }

      .cls-2 {
        fill: #ec2b77;
      }

      .cls-3 {
        fill: #572963;
      }

      .cls-4 {
        fill: #36bdb4;
      }
    </style>
  </defs>
  <rect class="cls-4" width="464.47" height="423" rx="12" ry="12"/>
  <g>
    <path class="cls-2" d="M366.52,99.53h-192.34l-33.18,34.36v172.99l33.18,16.59h190.76l24.88-24.88V124.41l-23.3-24.88ZM253.56,247.24h-67.54v-64.77h67.54v64.77ZM344.8,247.24h-67.54v-64.77h67.54v64.77Z"/>
    <path class="cls-3" d="M300.17,99.53H107.82l-33.18,34.36v172.99l33.18,16.59h190.76l24.88-24.88V124.41l-23.3-24.88ZM187.21,247.24h-67.54v-64.77h67.54v64.77ZM278.44,247.24h-67.54v-64.77h67.54v64.77Z"/>
    <path class="cls-1" d="M333.34,99.53h-192.34l-33.18,34.36v172.99l33.18,16.59h190.76l24.88-24.88V124.41l-23.3-24.88ZM220.39,247.24h-67.54v-64.77h67.54v64.77ZM311.62,247.24h-67.54v-64.77h67.54v64.77Z"/>
  </g>
</svg>