<?xml version="1.0" encoding="UTF-8"?>
<svg id="Layer_1" data-name="Layer 1" xmlns="http://www.w3.org/2000/svg" viewBox="0 0 465.57 424">
  <defs>
    <style>
      .cls-1 {
        fill: #fff;
      }

      .cls-2 {
        fill: #ec2b77;
      }

      .cls-3 {
        fill: #572963;
      }

      .cls-4 {
        fill: #36bdb4;
      }
    </style>
  </defs>
  <rect class="cls-4" x="0" width="465.57" height="424" rx="12" ry="12"/>
  <g>
    <g>
      <rect class="cls-2" x="328.46" y="96.44" width="44.21" height="34.44"/>
      <g>
        <polygon class="cls-2" points="131.07 333.25 131.07 193.08 155.74 193.08 155.74 216.47 155.74 249.63 155.74 260.42 166.53 260.42 166.53 271.22 177.33 271.22 177.39 282.01 183.16 282.01 188.12 282.01 188.12 294.86 198.92 294.86 198.92 303.43 224.28 303.43 224.28 311.31 285.28 311.31 285.28 333.25 131.07 333.25 131.07 333.25"/>
        <polygon class="cls-2" points="382.43 333.25 382.43 193.08 357.76 193.08 357.76 216.47 357.76 249.63 357.76 260.42 346.96 260.42 346.96 271.22 336.17 271.22 336.11 282.01 330.34 282.01 325.37 282.01 325.37 294.86 314.58 294.86 314.58 303.43 289.22 303.43 289.22 311.31 228.22 311.31 228.22 333.25 382.43 333.25 382.43 333.25"/>
      </g>
    </g>
    <rect class="cls-3" x="288.84" y="96.44" width="44.21" height="34.44"/>
    <ellipse class="cls-3" cx="226.99" cy="217.24" rx="70.17" ry="64.77"/>
    <ellipse class="cls-2" cx="251.93" cy="217.24" rx="70.17" ry="64.77"/>
    <g>
      <polygon class="cls-3" points="91.45 333.25 91.45 193.08 116.12 193.08 116.12 216.47 116.12 249.63 116.12 260.42 126.92 260.42 126.92 271.22 137.71 271.22 137.77 282.01 143.54 282.01 148.51 282.01 148.51 294.86 159.3 294.86 159.3 303.43 184.66 303.43 184.66 311.31 245.66 311.31 245.66 333.25 91.45 333.25 91.45 333.25"/>
      <polygon class="cls-3" points="342.82 333.25 342.82 193.08 318.14 193.08 318.14 216.47 318.14 249.63 318.14 260.42 307.35 260.42 307.35 271.22 296.55 271.22 296.49 282.01 290.73 282.01 285.76 282.01 285.76 294.86 274.96 294.86 274.96 303.43 249.6 303.43 249.6 311.31 188.6 311.31 188.6 333.25 342.82 333.25 342.82 333.25"/>
    </g>
    <g>
      <ellipse class="cls-1" cx="238.48" cy="217.24" rx="70.17" ry="64.77"/>
      <g>
        <rect class="cls-1" x="308.65" y="96.44" width="44.21" height="34.44"/>
        <g>
          <polygon class="cls-1" points="111.26 333.25 111.26 193.08 135.93 193.08 135.93 216.47 135.93 249.63 135.93 260.42 146.73 260.42 146.73 271.22 157.52 271.22 157.58 282.01 163.35 282.01 168.32 282.01 168.32 294.86 179.11 294.86 179.11 303.43 204.47 303.43 204.47 311.31 265.47 311.31 265.47 333.25 111.26 333.25 111.26 333.25"/>
          <polygon class="cls-1" points="362.62 333.25 362.62 193.08 337.95 193.08 337.95 216.47 337.95 249.63 337.95 260.42 327.16 260.42 327.16 271.22 316.36 271.22 316.3 282.01 310.53 282.01 305.57 282.01 305.57 294.86 294.77 294.86 294.77 303.43 269.41 303.43 269.41 311.31 208.41 311.31 208.41 333.25 362.62 333.25 362.62 333.25"/>
        </g>
      </g>
    </g>
  </g>
</svg>