<?xml version="1.0" encoding="UTF-8"?>
<svg id="Layer_1" data-name="Layer 1" xmlns="http://www.w3.org/2000/svg" viewBox="0 0 467.3 425.58">
  <defs>
    <style>
      .cls-1 {
        fill: #fff;
      }

      .cls-2 {
        fill: #ec2b77;
      }

      .cls-3 {
        fill: #572963;
      }

      .cls-4 {
        fill: #36bdb4;
      }
    </style>
  </defs>
  <rect class="cls-4" width="467.3" height="425.58" rx="12" ry="12"/>
  <g>
    <rect class="cls-1" x="125.17" y="91.79" width="58.41" height="58.41"/>
    <rect class="cls-1" x="125.17" y="170.07" width="58.41" height="152.59"/>
    <polygon class="cls-1" points="212.59 170.07 266.63 170.07 266.63 189.15 278.85 182.79 296.3 170.07 331.8 170.07 350.48 175.24 367.17 191.93 381.6 212.79 381.6 324.78 325.44 325.44 325.44 258.68 325.44 233.65 317.1 216.96 292.06 216.96 276.11 221.99 267.03 225.31 264.51 322.66 212.59 322.66 212.59 170.07"/>
  </g>
  <g>
    <rect class="cls-2" x="150.2" y="91.79" width="58.41" height="58.41"/>
    <rect class="cls-2" x="150.2" y="170.07" width="58.41" height="152.59"/>
    <polygon class="cls-2" points="237.62 170.07 291.67 170.07 291.67 189.15 303.89 182.79 321.34 170.07 356.83 170.07 375.51 175.24 392.2 191.93 406.64 212.79 406.64 324.78 350.48 325.44 350.48 258.68 350.48 233.65 342.13 216.96 317.1 216.96 301.15 221.99 292.06 225.31 289.55 322.66 237.62 322.66 237.62 170.07"/>
  </g>
  <g>
    <rect class="cls-3" x="100.14" y="91.79" width="58.41" height="58.41"/>
    <rect class="cls-3" x="100.14" y="170.07" width="58.41" height="152.59"/>
    <polygon class="cls-3" points="187.56 170.07 241.6 170.07 241.6 189.15 253.82 182.79 271.27 170.07 306.77 170.07 325.44 175.24 342.13 191.93 356.57 212.79 356.57 324.78 300.41 325.44 300.41 258.68 300.41 233.65 292.06 216.96 267.03 216.96 251.08 221.99 242 225.31 239.48 322.66 187.56 322.66 187.56 170.07"/>
  </g>
  <g>
    <rect class="cls-1" x="125.17" y="91.79" width="58.41" height="58.41"/>
    <rect class="cls-1" x="125.17" y="170.07" width="58.41" height="152.59"/>
    <polygon class="cls-1" points="212.59 170.07 266.63 170.07 266.63 189.15 278.85 182.79 296.3 170.07 331.8 170.07 350.48 175.24 367.17 191.93 381.6 212.79 381.6 324.78 325.44 325.44 325.44 258.68 325.44 233.65 317.1 216.96 292.06 216.96 276.11 221.99 267.03 225.31 264.51 322.66 212.59 322.66 212.59 170.07"/>
  </g>
</svg>