<?xml version="1.0" encoding="UTF-8"?>
<svg id="Layer_1" data-name="Layer 1" xmlns="http://www.w3.org/2000/svg" viewBox="0 0 478 132.23">
  <defs>
    <style>
      .cls-1 {
        fill: #f2f2f2;
      }

      .cls-2 {
        fill: #36bdb4;
      }

      .cls-3 {
        fill: #e21f26;
      }
    </style>
  </defs>
  <g>
    <path class="cls-2" d="M200.33,33.81l4.32-17.53h-58.09l-9.7,17.53h63.47Z"/>
    <path class="cls-2" d="M105.64,16.28h-52.38l-3.87,17.53h58.43l-2.18-17.53Z"/>
    <path class="cls-2" d="M219.16,33.81h44.94c4.26-3.03,9.44-4.88,15.74-4.88,5.8,0,10.66,1.6,14.27,4.88h40.42c-2.17-6.8-5.55-12.66-10.03-17.53h-89.9c-6.12,5.01-11.33,10.92-15.45,17.53Z"/>
    <path class="cls-2" d="M330.15,83.72h-34.31c-.55,0-.84.46-1.21.77h36.81c-.18-.45-.54-.77-1.28-.77Z"/>
    <path class="cls-2" d="M302.3,49.04h33.6c1.08,0,1.62-.54,1.44-1.61-.39-4.92-1.44-9.38-2.8-13.62h-40.42c3.32,3.01,5.61,7.42,6.39,13.62.18,1.07.89,1.61,1.79,1.61Z"/>
    <g>
      <path class="cls-2" d="M135.43,125.51c-.18,1.26.36,1.8,1.44,1.8h36.65c.89,0,1.62-.35,1.79-1.43l1.58-7.28h-39.9l-1.57,6.91Z"/>
      <path class="cls-2" d="M82.26,125.88c.18.89.72,1.43,1.62,1.43h26.95c.9,0,1.44-.35,1.8-1.07l4.21-7.64h-35.45l.88,7.28Z"/>
      <path class="cls-2" d="M23.68,125.51c-.18,1.08.37,1.8,1.44,1.8h30.72c.9,0,1.62-.35,1.8-1.43l1.69-7.28H25.35l-1.67,6.91Z"/>
      <path class="cls-2" d="M263.5,132.23c17.25,0,31.48-5.16,42.28-13.63h-83.41c10.56,8.84,24.77,13.63,41.13,13.63Z"/>
      <path class="cls-2" d="M360.73,130.43c-.18,1.08.18,1.8,1.26,1.8h37.9c.9,0,1.62-.37,1.8-1.45l2.57-12.18h-40.57l-2.96,11.83Z"/>
    </g>
    <g>
      <path class="cls-2" d="M217.46,3.35c.18-1.08-.36-1.8-1.43-1.8h-50.49c-.9,0-1.44.36-1.8,1.08l-7.55,13.65h58.09l3.18-12.93Z"/>
      <path class="cls-2" d="M113.61,2.99c-.18-.9-.72-1.44-1.62-1.44h-44.38c-.9,0-1.62.36-1.8,1.44l-2.93,13.29h52.38l-1.65-13.29Z"/>
      <path class="cls-2" d="M291.63,0c-19.19,0-35.17,6.28-47.39,16.28h89.9c-9.55-10.38-23.94-16.28-42.5-16.28Z"/>
      <path class="cls-2" d="M477.97,8.26c.18-1.08-.37-1.8-1.44-1.8h-106.18c-.9,0-1.62.35-1.8,1.43l-1.96,8.39h109.5l1.87-8.02Z"/>
    </g>
    <g>
      <polygon class="cls-2" points="159.89 84.49 152.13 118.6 192.03 118.6 199.46 84.49 159.89 84.49"/>
      <polygon class="cls-2" points="92.37 84.49 96.5 118.6 131.96 118.6 150.75 84.49 92.37 84.49"/>
      <polygon class="cls-2" points="48.74 84.49 40.48 118.6 74.46 118.6 82.39 84.49 48.74 84.49"/>
      <path class="cls-2" d="M342.59,85.16c.06-.29-.08-.47-.16-.67h-36.81c-.23.2-.62.14-.76.48-3.77,10.24-10.96,18.33-23.9,18.33-11.08,0-19.57-5.73-22.12-18.81h-39.34c2.02,14.6,8.4,26.08,17.99,34.11h83.41c10.8-8.46,18.17-20.23,21.68-33.44Z"/>
      <polygon class="cls-2" points="387.34 84.49 378.81 118.6 419.39 118.6 426.58 84.49 387.34 84.49"/>
    </g>
    <g>
      <polygon class="cls-2" points="78.47 71.79 78.65 70.9 81.7 53.11 85.5 84.49 143.87 84.49 161.66 52.22 156.08 70.9 155.91 71.79 153.02 84.49 192.58 84.49 197.23 63.18 204.46 33.81 140.98 33.81 117.28 76.65 111.95 33.81 53.51 33.81 47.03 63.18 41.87 84.49 75.51 84.49 78.47 71.79"/>
      <path class="cls-2" d="M268.23,33.81h-44.94c-7.51,12.06-11.54,26.26-11.54,40.75,0,3.51.44,6.72.88,9.93h39.34c-.51-2.62-.87-5.43-.87-8.67,0-12.83,4.27-32.84,17.14-42Z"/>
      <path class="cls-2" d="M357.56,33.81h103.54-103.54c.25.31.65.49,1.18.49h32.87l-7.18,34.32-3.97,15.87h39.25l3.35-15.87,8.62-34.32h33.24c.9,0,1.62-.35,1.8-1.43l3.87-16.58h-109.5l-3.79,16.23c-.09.54,0,.98.26,1.3Z"/>
    </g>
  </g>
  <g>
    <path class="cls-3" d="M179.7,33.81l4.32-17.53h-58.09l-9.7,17.53h63.47Z"/>
    <path class="cls-3" d="M85.01,16.28h-52.38l-3.87,17.53h58.43l-2.18-17.53Z"/>
    <path class="cls-3" d="M198.54,33.81h44.94c4.26-3.03,9.44-4.88,15.74-4.88,5.8,0,10.66,1.6,14.27,4.88h40.42c-2.17-6.8-5.55-12.66-10.03-17.53h-89.9c-6.12,5.01-11.33,10.92-15.45,17.53Z"/>
    <path class="cls-3" d="M309.52,83.72h-34.31c-.55,0-.84.46-1.21.77h36.81c-.18-.45-.54-.77-1.28-.77Z"/>
    <path class="cls-3" d="M281.67,49.04h33.6c1.08,0,1.62-.54,1.44-1.61-.39-4.92-1.44-9.38-2.8-13.62h-40.42c3.32,3.01,5.61,7.42,6.39,13.62.18,1.07.89,1.61,1.79,1.61Z"/>
    <g>
      <path class="cls-3" d="M114.8,125.51c-.18,1.26.36,1.8,1.44,1.8h36.65c.89,0,1.62-.35,1.79-1.43l1.58-7.28h-39.9l-1.57,6.91Z"/>
      <path class="cls-3" d="M61.63,125.88c.18.89.72,1.43,1.62,1.43h26.95c.9,0,1.44-.35,1.8-1.07l4.21-7.64h-35.45l.88,7.28Z"/>
      <path class="cls-3" d="M3.05,125.51c-.18,1.08.37,1.8,1.44,1.8h30.72c.9,0,1.62-.35,1.8-1.43l1.69-7.28H4.73l-1.67,6.91Z"/>
      <path class="cls-3" d="M242.88,132.23c17.25,0,31.48-5.16,42.28-13.63h-83.41c10.56,8.84,24.77,13.63,41.13,13.63Z"/>
      <path class="cls-3" d="M340.1,130.43c-.18,1.08.18,1.8,1.26,1.8h37.9c.9,0,1.62-.37,1.8-1.45l2.57-12.18h-40.57l-2.96,11.83Z"/>
    </g>
    <g>
      <path class="cls-3" d="M196.83,3.35c.18-1.08-.36-1.8-1.43-1.8h-50.49c-.9,0-1.44.36-1.8,1.08l-7.55,13.65h58.09l3.18-12.93Z"/>
      <path class="cls-3" d="M92.99,2.99c-.18-.9-.72-1.44-1.62-1.44h-44.38c-.9,0-1.62.36-1.8,1.44l-2.93,13.29h52.38l-1.65-13.29Z"/>
      <path class="cls-3" d="M271,0c-19.19,0-35.17,6.28-47.39,16.28h89.9c-9.55-10.38-23.94-16.28-42.5-16.28Z"/>
      <path class="cls-3" d="M457.34,8.26c.18-1.08-.37-1.8-1.44-1.8h-106.18c-.9,0-1.62.35-1.8,1.43l-1.96,8.39h109.5l1.87-8.02Z"/>
    </g>
    <g>
      <polygon class="cls-3" points="139.26 84.49 131.5 118.6 171.4 118.6 178.83 84.49 139.26 84.49"/>
      <polygon class="cls-3" points="71.74 84.49 75.87 118.6 111.33 118.6 130.12 84.49 71.74 84.49"/>
      <polygon class="cls-3" points="28.11 84.49 19.85 118.6 53.83 118.6 61.76 84.49 28.11 84.49"/>
      <path class="cls-3" d="M321.96,85.16c.06-.29-.08-.47-.16-.67h-36.81c-.23.2-.62.14-.76.48-3.77,10.24-10.96,18.33-23.9,18.33-11.08,0-19.57-5.73-22.12-18.81h-39.34c2.02,14.6,8.4,26.08,17.99,34.11h83.41c10.8-8.46,18.17-20.23,21.68-33.44Z"/>
      <polygon class="cls-3" points="366.71 84.49 358.18 118.6 398.76 118.6 405.96 84.49 366.71 84.49"/>
    </g>
    <g>
      <polygon class="cls-3" points="57.84 71.79 58.02 70.9 61.07 53.11 64.87 84.49 123.25 84.49 141.03 52.22 135.45 70.9 135.28 71.79 132.39 84.49 171.96 84.49 176.6 63.18 183.83 33.81 120.36 33.81 96.65 76.65 91.32 33.81 32.89 33.81 26.4 63.18 21.24 84.49 54.89 84.49 57.84 71.79"/>
      <path class="cls-3" d="M247.61,33.81h-44.94c-7.51,12.06-11.54,26.26-11.54,40.75,0,3.51.44,6.72.88,9.93h39.34c-.51-2.62-.87-5.43-.87-8.67,0-12.83,4.27-32.84,17.14-42Z"/>
      <path class="cls-3" d="M336.93,33.81h103.54-103.54c.25.31.65.49,1.18.49h32.87l-7.18,34.32-3.97,15.87h39.25l3.35-15.87,8.62-34.32h33.24c.9,0,1.62-.35,1.8-1.43l3.87-16.58h-109.5l-3.79,16.23c-.09.54,0,.98.26,1.3Z"/>
    </g>
  </g>
  <g>
    <path class="cls-1" d="M186.58,33.81l4.32-17.53h-58.09l-9.7,17.53h63.47Z"/>
    <path class="cls-1" d="M91.89,16.28h-52.38l-3.87,17.53h58.43l-2.18-17.53Z"/>
    <path class="cls-1" d="M205.41,33.81h44.94c4.26-3.03,9.44-4.88,15.74-4.88,5.8,0,10.66,1.6,14.27,4.88h40.42c-2.17-6.8-5.55-12.66-10.03-17.53h-89.9c-6.12,5.01-11.33,10.92-15.45,17.53Z"/>
    <path class="cls-1" d="M316.4,83.72h-34.31c-.55,0-.84.46-1.21.77h36.81c-.18-.45-.54-.77-1.28-.77Z"/>
    <path class="cls-1" d="M288.55,49.04h33.6c1.08,0,1.62-.54,1.44-1.61-.39-4.92-1.44-9.38-2.8-13.62h-40.42c3.32,3.01,5.61,7.42,6.39,13.62.18,1.07.89,1.61,1.79,1.61Z"/>
    <g>
      <path class="cls-1" d="M121.68,125.51c-.18,1.26.36,1.8,1.44,1.8h36.65c.89,0,1.62-.35,1.79-1.43l1.58-7.28h-39.9l-1.57,6.91Z"/>
      <path class="cls-1" d="M68.5,125.88c.18.89.72,1.43,1.62,1.43h26.95c.9,0,1.44-.35,1.8-1.07l4.21-7.64h-35.45l.88,7.28Z"/>
      <path class="cls-1" d="M9.93,125.51c-.18,1.08.37,1.8,1.44,1.8h30.72c.9,0,1.62-.35,1.8-1.43l1.69-7.28H11.6l-1.67,6.91Z"/>
      <path class="cls-1" d="M249.75,132.23c17.25,0,31.48-5.16,42.28-13.63h-83.41c10.56,8.84,24.77,13.63,41.13,13.63Z"/>
      <path class="cls-1" d="M346.98,130.43c-.18,1.08.18,1.8,1.26,1.8h37.9c.9,0,1.62-.37,1.8-1.45l2.57-12.18h-40.57l-2.96,11.83Z"/>
    </g>
    <g>
      <path class="cls-1" d="M203.71,3.35c.18-1.08-.36-1.8-1.43-1.8h-50.49c-.9,0-1.44.36-1.8,1.08l-7.55,13.65h58.09l3.18-12.93Z"/>
      <path class="cls-1" d="M99.86,2.99c-.18-.9-.72-1.44-1.62-1.44h-44.38c-.9,0-1.62.36-1.8,1.44l-2.93,13.29h52.38l-1.65-13.29Z"/>
      <path class="cls-1" d="M277.88,0c-19.19,0-35.17,6.28-47.39,16.28h89.9c-9.55-10.38-23.94-16.28-42.5-16.28Z"/>
      <path class="cls-1" d="M464.22,8.26c.18-1.08-.37-1.8-1.44-1.8h-106.18c-.9,0-1.62.35-1.8,1.43l-1.96,8.39h109.5l1.87-8.02Z"/>
    </g>
    <g>
      <polygon class="cls-1" points="146.14 84.49 138.38 118.6 178.28 118.6 185.71 84.49 146.14 84.49"/>
      <polygon class="cls-1" points="78.62 84.49 82.75 118.6 118.2 118.6 137 84.49 78.62 84.49"/>
      <polygon class="cls-1" points="34.99 84.49 26.73 118.6 60.71 118.6 68.64 84.49 34.99 84.49"/>
      <path class="cls-1" d="M328.84,85.16c.06-.29-.08-.47-.16-.67h-36.81c-.23.2-.62.14-.76.48-3.77,10.24-10.96,18.33-23.9,18.33-11.08,0-19.57-5.73-22.12-18.81h-39.34c2.02,14.6,8.4,26.08,17.99,34.11h83.41c10.8-8.46,18.17-20.23,21.68-33.44Z"/>
      <polygon class="cls-1" points="373.59 84.49 365.06 118.6 405.64 118.6 412.83 84.49 373.59 84.49"/>
    </g>
    <g>
      <polygon class="cls-1" points="64.71 71.79 64.9 70.9 67.95 53.11 71.74 84.49 130.12 84.49 147.9 52.22 142.33 70.9 142.15 71.79 139.26 84.49 178.83 84.49 183.47 63.18 190.71 33.81 127.23 33.81 103.53 76.65 98.2 33.81 39.76 33.81 33.28 63.18 28.11 84.49 61.76 84.49 64.71 71.79"/>
      <path class="cls-1" d="M254.48,33.81h-44.94c-7.51,12.06-11.54,26.26-11.54,40.75,0,3.51.44,6.72.88,9.93h39.34c-.51-2.62-.87-5.43-.87-8.67,0-12.83,4.27-32.84,17.14-42Z"/>
      <path class="cls-1" d="M343.8,33.81h103.54-103.54c.25.31.65.49,1.18.49h32.87l-7.18,34.32-3.97,15.87h39.25l3.35-15.87,8.62-34.32h33.24c.9,0,1.62-.35,1.8-1.43l3.87-16.58h-109.5l-3.79,16.23c-.09.54,0,.98.26,1.3Z"/>
    </g>
  </g>
  <g>
    <rect class="cls-1" x="38.1" y="2.59" width="13.75" height="2.75"/>
    <rect class="cls-1" x="33.6" y="40.05" width="13.75" height="2.75"/>
    <rect class="cls-1" x="116.83" y="111.22" width="13.75" height="2.75"/>
    <rect class="cls-1" x="109.95" y="46.09" width="13.75" height="2.75"/>
    <rect class="cls-1" x="90.82" y="32.44" width="13.75" height="2.75"/>
    <rect class="cls-1" x="19.85" y="98.79" width="13.75" height="2.75"/>
    <rect class="cls-1" y="124.04" width="13.75" height="2.75"/>
    <rect class="cls-1" x="184.79" y="32.44" width="13.75" height="2.75"/>
    <rect class="cls-1" x="199.54" y="13.53" width="13.75" height="2.75"/>
    <rect class="cls-1" x="137.75" y="8.92" width="13.75" height="2.75"/>
    <rect class="cls-1" x="243.87" y="9.49" width="13.75" height="2.75"/>
    <rect class="cls-1" x="243.87" y="9.49" width="13.75" height="2.75"/>
    <rect class="cls-1" x="170.75" y="79.18" width="13.75" height="2.75"/>
    <rect class="cls-1" x="158.54" y="122.26" width="13.75" height="2.75"/>
    <rect class="cls-1" x="69.33" y="97.42" width="13.75" height="2.75"/>
    <rect class="cls-1" x="313.07" y="13.53" width="13.75" height="2.75"/>
    <rect class="cls-1" x="232.55" y="6.97" width="13.75" height="2.75"/>
    <rect class="cls-1" x="203.74" y="20.31" width="13.75" height="2.75"/>
    <rect class="cls-1" x="194.87" y="56.12" width="13.75" height="2.75"/>
    <rect class="cls-1" x="197.77" y="91" width="13.75" height="2.75"/>
    <rect class="cls-1" x="240.73" y="38.68" width="13.75" height="2.75"/>
    <rect class="cls-1" x="239.42" y="86.38" width="13.75" height="2.75"/>
    <rect class="cls-1" x="301.99" y="115.85" width="13.75" height="2.75"/>
    <rect class="cls-1" x="217.49" y="127.31" width="13.75" height="2.75"/>
    <rect class="cls-1" x="231.24" y="65.6" width="13.75" height="2.75"/>
    <rect class="cls-1" x="316.74" y="44.71" width="13.75" height="2.75"/>
    <rect class="cls-1" x="266.62" y="127.31" width="13.75" height="2.75"/>
    <rect class="cls-1" x="368.72" y="39.15" width="13.75" height="2.75"/>
    <rect class="cls-1" x="247.61" y="98.54" width="13.75" height="2.75"/>
    <rect class="cls-1" x="323.62" y="90.72" width="13.75" height="2.75"/>
    <rect class="cls-1" x="290.38" y=".66" width="13.75" height="2.75"/>
    <rect class="cls-1" x="311.71" y="28.49" width="13.75" height="2.75"/>
    <rect class="cls-1" x="410.11" y="53.58" width="13.75" height="2.75"/>
    <rect class="cls-1" x="455.92" y="15.81" width="13.75" height="2.75"/>
    <rect class="cls-1" x="405.96" y="82.73" width="13.75" height="2.75"/>
    <rect class="cls-1" x="398.25" y="115.85" width="13.75" height="2.75"/>
    <rect class="cls-1" x="359.71" y="72.45" width="13.75" height="2.75"/>
    <rect class="cls-1" x="340.06" y="117.23" width="13.75" height="2.75"/>
    <rect class="cls-1" x="401.67" y="71.08" width="13.75" height="2.75"/>
    <rect class="cls-1" x="360.68" y="83.11" width="13.75" height="2.75"/>
    <rect class="cls-1" x="342.11" y="128.39" width="13.75" height="2.75"/>
    <rect class="cls-1" x="342.2" y="16.28" width="13.75" height="2.75"/>
  </g>
  <g>
    <rect class="cls-3" x="144.63" y="5.59" width="13.75" height="1.38"/>
    <rect class="cls-3" x="122.51" y="33.12" width="13.75" height="1.38"/>
    <rect class="cls-3" x="109.95" y="62.26" width="13.75" height="1.38"/>
    <rect class="cls-3" x="139.33" y="84.49" width="13.75" height="1.38"/>
    <rect class="cls-3" x="143.25" y="60.43" width="13.75" height="1.38"/>
    <rect class="cls-3" x="196.18" y="71.92" width="13.75" height="1.38"/>
    <rect class="cls-3" x="217.49" y="116.54" width="13.75" height="1.38"/>
    <rect class="cls-3" x="274.77" y="96.17" width="13.75" height="1.38"/>
    <rect class="cls-3" x="289.67" y="84.49" width="13.75" height="1.38"/>
    <rect class="cls-3" x="281.65" y="43.34" width="13.75" height="1.38"/>
    <rect class="cls-3" x="340.22" y="30.55" width="13.75" height="1.38"/>
    <rect class="cls-3" x="331.03" y="20.19" width="13.75" height="1.38"/>
    <rect class="cls-3" x="373.87" y="37.78" width="13.75" height="1.38"/>
    <rect class="cls-3" x="361.23" y="68.35" width="13.75" height="1.38"/>
    <rect class="cls-3" x="351.31" y="114.2" width="13.75" height="1.38"/>
    <rect class="cls-3" x="344.99" y="124.04" width="13.75" height="1.38"/>
    <rect class="cls-3" x="367.56" y="102.53" width="13.75" height="1.38"/>
    <rect class="cls-3" x="360.68" y="90.04" width="13.75" height="1.38"/>
    <rect class="cls-3" x="357.26" y="54.95" width="13.75" height="1.38"/>
    <rect class="cls-3" x="350.39" y="8.49" width="13.75" height="1.38"/>
    <rect class="cls-3" x="267.89" y="29.18" width="13.75" height="1.38"/>
    <rect class="cls-3" x="271.05" y="37.99" width="13.75" height="1.38"/>
    <rect class="cls-3" x="224.37" y="130.85" width="13.75" height="1.38"/>
    <rect class="cls-3" x="195.27" y="102.61" width="13.75" height="1.38"/>
    <rect class="cls-3" x="232.03" y="12.24" width="13.75" height="1.38"/>
    <rect class="cls-3" x="189.3" y="43.92" width="13.75" height="1.38"/>
    <rect class="cls-3" x="234.76" y="3.42" width="13.75" height="1.38"/>
    <rect class="cls-3" x="131.5" y="117.23" width="13.75" height="1.38"/>
    <rect class="cls-3" x="74.04" y="85.18" width="13.75" height="1.38"/>
    <rect class="cls-3" x="13.99" y="73.59" width="13.75" height="1.38"/>
    <rect class="cls-3" x="28.11" y="84.49" width="13.75" height="1.38"/>
    <rect class="cls-3" x="12.98" y="116.54" width="13.75" height="1.38"/>
    <rect class="cls-3" x="54.89" y="59.15" width="13.75" height="1.38"/>
    <rect class="cls-3" x="19.2" y="32.44" width="13.75" height="1.38"/>
    <rect class="cls-3" x="43.3" y="14.91" width="13.75" height="1.38"/>
  </g>
  <rect class="cls-2" x="83.73" y="16.28" width="13.75" height="1.38"/>
  <rect class="cls-2" x="106.2" y="33.81" width="13.75" height="1.38"/>
  <rect class="cls-2" x="91.54" y="40.22" width="13.75" height="1.38"/>
  <rect class="cls-2" x="89.61" y="62.26" width="13.75" height="1.38"/>
  <rect class="cls-2" x="51.76" y="116.11" width="13.75" height="1.38"/>
  <rect class="cls-2" x="38.71" y="118.6" width="13.75" height="1.38"/>
  <rect class="cls-2" x="56.45" y="90.47" width="13.75" height="1.38"/>
  <rect class="cls-2" x="97.17" y="118.6" width="13.75" height="1.38"/>
  <rect class="cls-2" x="170.26" y="101.54" width="13.75" height="1.38"/>
  <rect class="cls-2" x="169.44" y="83.11" width="13.75" height="1.38"/>
  <rect class="cls-2" x="174.03" y="64.39" width="13.75" height="1.38"/>
  <rect class="cls-2" x="188.37" y="73.3" width="13.75" height="1.38"/>
  <rect class="cls-2" x="232.55" y="56.81" width="13.75" height="1.38"/>
  <rect class="cls-2" x="230.09" y="68.35" width="13.75" height="1.38"/>
  <rect class="cls-2" x="242.47" y="96.86" width="13.75" height="1.38"/>
  <rect class="cls-2" x="247.61" y="79.87" width="13.75" height="1.38"/>
  <rect class="cls-2" x="282.28" y="118.6" width="13.75" height="1.38"/>
  <rect class="cls-2" x="258.52" y="130.06" width="13.75" height="1.38"/>
  <rect class="cls-2" x="318.38" y="90.04" width="13.75" height="1.38"/>
  <rect class="cls-2" x="408.54" y="85.18" width="13.75" height="1.38"/>
  <rect class="cls-2" x="395.82" y="106.98" width="13.75" height="1.38"/>
  <rect class="cls-2" x="381.23" y="121.55" width="13.75" height="1.38"/>
  <rect class="cls-2" x="402" y="69.7" width="13.75" height="1.38"/>
  <rect class="cls-2" x="401.28" y="52.2" width="13.75" height="1.38"/>
  <rect class="cls-2" x="416.2" y="34.59" width="13.75" height="1.38"/>
  <rect class="cls-2" x="449.05" y="18.97" width="13.75" height="1.38"/>
  <rect class="cls-2" x="449.96" y="30.11" width="13.75" height="1.38"/>
  <rect class="cls-2" x="458.26" y="8.59" width="13.75" height="1.38"/>
  <rect class="cls-2" x="315.74" y="43.34" width="13.75" height="1.38"/>
  <rect class="cls-2" x="313.07" y="21.57" width="13.75" height="1.38"/>
  <rect class="cls-2" x="300.78" y="16.28" width="13.75" height="1.38"/>
  <rect class="cls-2" x="293.4" y="3.42" width="13.75" height="1.38"/>
  <rect class="cls-2" x="313.73" y="107.81" width="13.75" height="1.38"/>
  <rect class="cls-2" x="252.43" y="47.3" width="13.75" height="1.38"/>
  <rect class="cls-2" x="234.92" y="43.92" width="13.75" height="1.38"/>
  <rect class="cls-2" x="187.14" y="117.23" width="13.75" height="1.38"/>
  <rect class="cls-2" x="180.9" y="35.19" width="13.75" height="1.38"/>
  <rect class="cls-2" x="182.13" y="16.28" width="13.75" height="1.38"/>
  <rect class="cls-2" x="195.18" y="17.98" width="13.75" height="1.38"/>
  <rect class="cls-2" x="209.23" y="4.22" width="13.75" height="1.38"/>
  <rect class="cls-2" x="152.82" y="118.6" width="13.75" height="1.38"/>
  <rect class="cls-2" x="117.75" y="83.11" width="13.75" height="1.38"/>
  <rect class="cls-2" x="50.94" y="81.24" width="13.75" height="1.38"/>
</svg>